name analog
datacolumns 19
datarows 33
range 0.188 0.20400000000000001
endheader
time	ground_force_vx	ground_force_vy	ground_force_vz	ground_force_px	ground_force_py	ground_force_pz	l_ground_force_vx	l_ground_force_vy	l_ground_force_vz	l_ground_force_px	l_ground_force_py	l_ground_force_pz	ground_torque_x	ground_torque_y	ground_torque_z	l_ground_torque_x	l_ground_torque_y	l_ground_torque_z
0.188	-0.0	-0.0	-0.0	0.0079057589173316	60.15224456787109	-407.17376708984375	-7.109897136688232	-60.85364532470703	-403.0999450683594	-0.0	-0.0	-0.0	-0.0	-0.0	-0.0	104921.9453125	-30773.005859375	-347.56134033203125
0.1885	-0.0	-0.0	-0.0	0.9737377762794496	60.355201721191406	-406.2420654296875	-6.341564655303955	-60.28902816772461	-402.6990661621094	-0.0	-0.0	-0.0	-0.0	-0.0	-0.0	104808.3984375	-30832.8359375	-249.9299468994141
0.189	-0.0	-0.0	-0.0	0.9491202235221864	60.295040130615234	-406.6933288574219	-6.42214298248291	-60.6448974609375	-402.8363342285156	-0.0	-0.0	-0.0	-0.0	-0.0	-0.0	104934.2109375	-31390.818359375	-82.89363861083984
0.1895	-0.0	-0.0	-0.0	1.1811273097991943	59.8956298828125	-406.86328125	-5.986473083496094	-60.48969268798828	-401.8616638183594	-0.0	-0.0	-0.0	-0.0	-0.0	-0.0	105165.0078125	-31342.095703125	91.8697738647461
0.19	-0.0	-0.0	-0.0	1.070526123046875	60.26280212402344	-406.9054870605469	-5.588779449462891	-60.68762969970703	-403.5772399902344	-0.0	-0.0	-0.0	-0.0	-0.0	-0.0	105193.0625	-31582.361328125	173.97848510742188
0.1905	-0.0	-0.0	-0.0	1.1810023784637451	60.72734069824219	-408.3766479492188	-5.489414691925049	-60.41203308105469	-403.2282104492188	-0.0	-0.0	-0.0	-0.0	-0.0	-0.0	105351.8125	-32049.275390625	329.5945739746094
0.191	-0.0	-0.0	-0.0	1.359350562095642	60.341285705566406	-407.1745300292969	-4.910946369171143	-60.47921752929688	-403.2701416015625	-0.0	-0.0	-0.0	-0.0	-0.0	-0.0	105413.6953125	-32454.708984375	481.8838195800781
0.1915	-0.0	-0.0	-0.0	1.9990416765213013	60.598121643066406	-407.40240478515625	-4.545413017272949	-60.04821014404297	-403.0618896484375	-0.0	-0.0	-0.0	-0.0	-0.0	-0.0	105506.0546875	-32797.4609375	618.61328125
0.192	-0.0	-0.0	-0.0	1.89448881149292	60.351810455322266	-407.0300903320313	-4.3679399490356445	-60.41203308105469	-402.3888244628906	-0.0	-0.0	-0.0	-0.0	-0.0	-0.0	105514.75	-33348.73828125	908.1935424804688
0.1925	-0.0	-0.0	-0.0	2.151549816131592	60.48808288574219	-407.9644165039063	-3.949907541275024	-60.235389709472656	-401.1158752441406	-0.0	-0.0	-0.0	-0.0	-0.0	-0.0	105771.4453125	-33726.28515625	1161.4173583984375
0.193	-0.0	-0.0	-0.0	2.975330352783203	59.92698669433594	-407.0093994140625	-3.318593740463257	-60.21451568603516	-402.7971801757813	-0.0	-0.0	-0.0	-0.0	-0.0	-0.0	105488.359375	-34046.8984375	1257.8990478515625
0.1935	-0.0	-0.0	-0.0	3.006502389907837	60.66655731201172	-408.5466613769531	-2.849193334579468	-60.54706573486328	-402.6951904296875	-0.0	-0.0	-0.0	-0.0	-0.0	-0.0	105724.0625	-34120.27734375	1488.4730224609375
0.194	-0.0	-0.0	-0.0	3.253173589706421	60.43041229248047	-406.6748046875	-2.880429983139038	-60.16782379150391	-401.56536865234375	-0.0	-0.0	-0.0	-0.0	-0.0	-0.0	105822.6796875	-34430.23046875	1488.5653076171875
0.1945	-0.0	-0.0	-0.0	3.794602394104004	60.440765380859375	-406.1569213867188	-3.214358329772949	-60.147071838378906	-402.1187744140625	-0.0	-0.0	-0.0	-0.0	-0.0	-0.0	105821.875	-34694.88671875	1488.3572998046875
0.195	-0.0	-0.0	-0.0	4.271778583526611	60.4989128112793	-407.9637145996094	-3.4020559787750244	-60.11026382446289	-404.3816223144531	-0.0	-0.0	-0.0	-0.0	-0.0	-0.0	105895.1171875	-34629.04296875	1390.3643798828125
0.1955	-0.0	-0.0	-0.0	4.398725509643555	60.1836051940918	-405.5729064941406	-3.814563751220703	-59.96015167236328	-403.2295227050781	-0.0	-0.0	-0.0	-0.0	-0.0	-0.0	105951.9609375	-34902.26953125	1494.9232177734375
0.196	-0.0	-0.0	-0.0	4.292367935180664	59.53201675415039	-406.8226623535156	-4.039549350738525	-60.147071838378906	-404.1151428222656	-0.0	-0.0	-0.0	-0.0	-0.0	-0.0	106122.6171875	-34983.5859375	1426.3623046875
0.1965	-0.0	-0.0	-0.0	4.371315002441406	60.58823776245117	-407.33795166015625	-4.169406890869141	-60.06895065307617	-403.2158203125	-0.0	-0.0	-0.0	-0.0	-0.0	-0.0	105993.3046875	-34812.2265625	1468.4068603515625
0.197	-0.0	-0.0	-0.0	4.27453088760376	60.44060897827149	-406.3993225097656	-4.572048187255859	-60.15725326538086	-402.6925964355469	-0.0	-0.0	-0.0	-0.0	-0.0	-0.0	105807.390625	-35067.28515625	1438.426513671875
0.1975	-0.0	-0.0	-0.0	4.233566761016846	60.73844528198242	-406.0453186035156	-4.5140581130981445	-60.05874633789063	-402.2627868652344	-0.0	-0.0	-0.0	-0.0	-0.0	-0.0	106101.390625	-35270.09375	1385.96875
0.198	-0.0	-0.0	-0.0	4.649078369140625	60.618797302246094	-409.2954711914063	-4.210029602050781	-60.265724182128906	-401.5349731445313	-0.0	-0.0	-0.0	-0.0	-0.0	-0.0	105893.7109375	-35273.4921875	1550.4964599609375
0.1985	-0.0	-0.0	-0.0	4.79715633392334	61.05432891845703	-406.4369812011719	-4.701671600341797	-60.442291259765625	-403.6192626953125	-0.0	-0.0	-0.0	-0.0	-0.0	-0.0	106095.4140625	-35378.23046875	1639.102783203125
0.199	-0.0	-0.0	-0.0	5.480705261230469	61.21247100830078	-408.1962890625	-4.592773914337158	-60.83354568481445	-403.00042724609375	-0.0	-0.0	-0.0	-0.0	-0.0	-0.0	106292.109375	-35630.04296875	1589.890380859375
0.1995	-0.0	-0.0	-0.0	5.09503173828125	60.896114349365234	-408.0419921875	-4.44740104675293	-60.55042266845703	-404.6271667480469	-0.0	-0.0	-0.0	-0.0	-0.0	-0.0	106417.1796875	-35647.99609375	1646.0064697265625
0.2	-0.0	-0.0	-0.0	4.9074296951293945	61.29172134399414	-407.7643737792969	-5.046483039855957	-60.80527114868164	-404.0868835449219	-0.0	-0.0	-0.0	-0.0	-0.0	-0.0	106666.28125	-36249.765625	1679.051513671875
0.2005	-0.0	-0.0	-0.0	5.084475517272949	61.70812225341797	-407.64654541015625	-5.292661190032959	-61.31391525268555	-404.9371948242188	-0.0	-0.0	-0.0	-0.0	-0.0	-0.0	106840.8984375	-36437.65625	1842.8118896484373
0.201	-0.0	-0.0	-0.0	4.638946533203125	61.10395431518555	-406.7854309082031	-5.066473960876465	-61.14835357666016	-406.7224426269531	-0.0	-0.0	-0.0	-0.0	-0.0	-0.0	107244.0078125	-36935.16015625	2040.6968994140625
0.2015	-0.0	-0.0	-0.0	4.450505256652832	61.599117279052734	-406.9813537597656	-4.780458450317383	-61.236572265625	-405.4798278808594	-0.0	-0.0	-0.0	-0.0	-0.0	-0.0	107292.34375	-37230.0703125	1955.4652099609373
0.202	-0.0	-0.0	-0.0	4.787752628326416	61.61869812011719	-407.3742370605469	-4.750794410705566	-61.3540153503418	-407.5768127441406	-0.0	-0.0	-0.0	-0.0	-0.0	-0.0	107762.078125	-37441.3203125	2074.0673828125
0.2025	-0.0	-0.0	-0.0	4.629111289978027	61.29154586791992	-406.8243408203125	-4.149685382843018	-61.27561569213867	-408.3133239746094	-0.0	-0.0	-0.0	-0.0	-0.0	-0.0	107949.1171875	-37995.86328125	2591.908447265625
0.203	-0.0	-0.0	-0.0	4.906578063964844	61.3227424621582	-404.74017333984375	-3.74550199508667	-61.65861129760742	-409.9426574707031	-0.0	-0.0	-0.0	-0.0	-0.0	-0.0	108286.8046875	-38399.64453125	2611.918701171875
0.20350000000000001	-0.0	-0.0	-0.0	4.728157043457031	61.35226821899414	-404.70550537109375	-3.262701749801636	-61.2166862487793	-409.6705627441406	-0.0	-0.0	-0.0	-0.0	-0.0	-0.0	108511.6171875	-39006.4296875	2730.881591796875
0.20400000000000001	-0.0	-0.0	-0.0	4.877368927001953	61.15318298339844	-405.3349304199219	-2.641798734664917	-61.19721221923828	-411.6915283203125	-0.0	-0.0	-0.0	-0.0	-0.0	-0.0	108761.515625	-39320.5625	3090.772216796875
